<svg xmlns="http://www.w3.org/2000/svg" xmlns:xlink="http://www.w3.org/1999/xlink" viewBox="0 0 4.2333332 4.2333332">
    <defs>
        <linearGradient id="a">
            <stop offset="0" stop-color="#00b4f1"/>
            <stop offset=".524" stop-color="#0592f8"/>
            <stop offset="1" stop-color="#071dfb"/>
        </linearGradient>
        <radialGradient r="564.191" fy="553.033" fx="693.913" cy="553.033" cx="693.913" gradientTransform="matrix(.00386 .00003 -.00003 .0041 -1.271 291.66)" gradientUnits="userSpaceOnUse" id="b" xlink:href="#a"/>
    </defs>
    <path d="M1.455 294.49a.187.187 0 0 0 .265 0l.264-.265-.264-.264a.187.187 0 0 0-.265 0l-.264.264zm1.32-.53a.187.187 0 0 0-.263 0l-.792.793a.187.187 0 0 1-.265 0l-.792-.792a.187.187 0 0 0-.264 0l-.264.264a.187.187 0 0 0 0 .264l1.452 1.453 1.453-1.453a.187.187 0 0 0 0-.264zm.793 0a.187.187 0 0 1 .264 0l.264.265a.187.187 0 0 1 0 .264l-1.452 1.453-.396-.396 1.056-1.057a.187.187 0 0 0 0-.264z" fill="url(#b)" paint-order="markers fill stroke" transform="translate(0 -292.767)"/>
</svg>
